<svg xmlns="http://www.w3.org/2000/svg" xmlns:xlink="http://www.w3.org/1999/xlink" width="500" zoomAndPan="magnify" viewBox="0 0 375 374.999991" height="500" preserveAspectRatio="xMidYMid meet" version="1.0"><defs><g/><clipPath id="6515c203e9"><path d="M 119 201 L 253 201 L 253 234.089844 L 119 234.089844 Z M 119 201 " clip-rule="nonzero"/></clipPath><clipPath id="15e07c98f6"><path d="M 86.554688 141 L 120 141 L 120 159 L 86.554688 159 Z M 86.554688 141 " clip-rule="nonzero"/></clipPath><clipPath id="b66c21bba4"><path d="M 255 141 L 288.304688 141 L 288.304688 158 L 255 158 Z M 255 141 " clip-rule="nonzero"/></clipPath></defs><path fill="#00bf63" d="M 208.664062 179.710938 L 204.414062 188.574219 L 199.347656 176.023438 L 193.945312 192.996094 L 188.789062 173.195312 L 183.960938 195.257812 L 176.949219 172.839844 L 172.175781 191.070312 L 165.707031 176.285156 L 164.257812 179.699219 L 137.441406 179.699219 L 137.441406 185.113281 C 137.441406 186 137.527344 186.878906 137.699219 187.753906 C 137.875 188.625 138.128906 189.46875 138.46875 190.289062 C 138.808594 191.113281 139.226562 191.890625 139.71875 192.628906 C 140.214844 193.371094 140.773438 194.054688 141.402344 194.679688 C 142.03125 195.308594 142.714844 195.871094 143.453125 196.363281 C 144.191406 196.859375 144.972656 197.273438 145.792969 197.613281 C 146.613281 197.953125 147.460938 198.210938 148.332031 198.382812 C 149.203125 198.558594 150.082031 198.644531 150.972656 198.644531 L 220.902344 198.644531 C 221.792969 198.644531 222.671875 198.558594 223.542969 198.382812 C 224.414062 198.210938 225.261719 197.953125 226.082031 197.613281 C 226.902344 197.273438 227.683594 196.859375 228.421875 196.363281 C 229.160156 195.871094 229.84375 195.308594 230.46875 194.679688 C 231.097656 194.050781 231.660156 193.367188 232.152344 192.628906 C 232.644531 191.890625 233.0625 191.109375 233.402344 190.289062 C 233.742188 189.46875 234 188.625 234.171875 187.75 C 234.34375 186.878906 234.429688 186 234.429688 185.113281 L 234.429688 179.699219 Z M 208.664062 179.710938 " fill-opacity="1" fill-rule="nonzero"/><path fill="#000000" d="M 186.839844 97.761719 C 185.886719 97.757812 184.964844 97.578125 184.078125 97.222656 L 184.078125 109.445312 L 189.609375 109.445312 L 189.609375 97.222656 C 188.71875 97.578125 187.796875 97.757812 186.839844 97.761719 Z M 186.839844 97.761719 " fill-opacity="1" fill-rule="nonzero"/><path fill="#00bf63" d="M 188.03125 83.015625 C 188.511719 83.09375 188.980469 83.21875 189.4375 83.386719 C 189.894531 83.558594 190.328125 83.773438 190.742188 84.027344 C 191.15625 84.285156 191.542969 84.578125 191.898438 84.910156 C 192.253906 85.242188 192.574219 85.609375 192.859375 86.003906 C 193.144531 86.398438 193.390625 86.820312 193.589844 87.261719 C 193.792969 87.707031 193.949219 88.164062 194.0625 88.636719 C 194.171875 89.113281 194.238281 89.59375 194.253906 90.082031 C 194.273438 90.566406 194.242188 91.050781 194.164062 91.53125 C 194.085938 92.015625 193.960938 92.484375 193.789062 92.9375 C 193.617188 93.394531 193.40625 93.832031 193.148438 94.246094 C 192.890625 94.660156 192.597656 95.046875 192.265625 95.402344 C 191.933594 95.757812 191.570312 96.078125 191.171875 96.363281 C 190.777344 96.648438 190.359375 96.890625 189.914062 97.09375 C 189.472656 97.296875 189.011719 97.453125 188.539062 97.5625 C 188.0625 97.675781 187.582031 97.738281 187.097656 97.757812 C 186.609375 97.773438 186.125 97.742188 185.644531 97.664062 C 185.164062 97.585938 184.695312 97.460938 184.238281 97.292969 C 183.78125 97.121094 183.347656 96.90625 182.933594 96.652344 C 182.515625 96.394531 182.132812 96.101562 181.777344 95.769531 C 181.417969 95.433594 181.097656 95.070312 180.8125 94.675781 C 180.53125 94.28125 180.285156 93.859375 180.082031 93.417969 C 179.882812 92.972656 179.726562 92.515625 179.613281 92.039062 C 179.5 91.566406 179.4375 91.085938 179.421875 90.597656 C 179.402344 90.113281 179.433594 89.628906 179.511719 89.148438 C 179.589844 88.664062 179.714844 88.195312 179.886719 87.742188 C 180.054688 87.285156 180.269531 86.847656 180.527344 86.433594 C 180.78125 86.019531 181.078125 85.632812 181.410156 85.277344 C 181.742188 84.921875 182.105469 84.601562 182.5 84.316406 C 182.898438 84.03125 183.316406 83.789062 183.757812 83.585938 C 184.203125 83.382812 184.660156 83.226562 185.136719 83.117188 C 185.609375 83.003906 186.089844 82.9375 186.578125 82.921875 C 187.066406 82.90625 187.550781 82.9375 188.03125 83.015625 Z M 188.03125 83.015625 " fill-opacity="1" fill-rule="nonzero"/><path fill="#000000" d="M 158.660156 198.65625 L 213.214844 198.65625 L 213.214844 201.171875 L 158.660156 201.171875 Z M 158.660156 198.65625 " fill-opacity="1" fill-rule="nonzero"/><g clip-path="url(#6515c203e9)"><path fill="#00bf63" d="M 252.058594 234.226562 L 252.058594 222.101562 C 252.058594 221.417969 252.019531 220.734375 251.949219 220.054688 C 251.882812 219.371094 251.777344 218.695312 251.644531 218.027344 C 251.507812 217.355469 251.339844 216.691406 251.136719 216.039062 C 250.9375 215.382812 250.707031 214.742188 250.441406 214.109375 C 250.179688 213.476562 249.886719 212.859375 249.5625 212.257812 C 249.238281 211.65625 248.886719 211.070312 248.503906 210.5 C 248.125 209.933594 247.714844 209.386719 247.28125 208.855469 C 246.847656 208.328125 246.386719 207.820312 245.902344 207.339844 C 245.417969 206.855469 244.910156 206.394531 244.382812 205.960938 C 243.851562 205.527344 243.304688 205.121094 242.734375 204.742188 C 242.167969 204.359375 241.578125 204.007812 240.976562 203.6875 C 240.375 203.363281 239.753906 203.070312 239.125 202.808594 C 238.492188 202.546875 237.847656 202.316406 237.195312 202.117188 C 236.539062 201.914062 235.875 201.75 235.207031 201.613281 C 234.535156 201.480469 233.859375 201.378906 233.179688 201.308594 C 232.496094 201.238281 231.816406 201.203125 231.128906 201.203125 L 140.746094 201.203125 C 140.0625 201.207031 139.378906 201.242188 138.699219 201.3125 C 138.019531 201.382812 137.34375 201.484375 136.675781 201.621094 C 136.003906 201.753906 135.34375 201.921875 134.6875 202.121094 C 134.035156 202.324219 133.394531 202.554688 132.761719 202.816406 C 132.132812 203.082031 131.515625 203.375 130.910156 203.695312 C 130.308594 204.019531 129.722656 204.371094 129.15625 204.753906 C 128.589844 205.132812 128.039062 205.539062 127.511719 205.972656 C 126.984375 206.40625 126.476562 206.867188 125.996094 207.351562 C 125.511719 207.832031 125.050781 208.339844 124.617188 208.867188 C 124.183594 209.394531 123.777344 209.945312 123.398438 210.511719 C 123.015625 211.078125 122.664062 211.664062 122.339844 212.265625 C 122.019531 212.871094 121.726562 213.484375 121.460938 214.117188 C 121.199219 214.75 120.96875 215.390625 120.765625 216.042969 C 120.566406 216.699219 120.398438 217.359375 120.265625 218.03125 C 120.128906 218.699219 120.027344 219.375 119.957031 220.054688 C 119.886719 220.734375 119.851562 221.417969 119.847656 222.101562 L 119.847656 234.226562 Z M 252.058594 234.226562 " fill-opacity="1" fill-rule="nonzero"/></g><path fill="#00bf63" d="M 238.699219 139.757812 L 236.460938 139.09375 L 234.4375 157.601562 L 234.4375 133.578125 C 234.4375 132.855469 234.402344 132.136719 234.332031 131.421875 C 234.261719 130.707031 234.15625 129.992188 234.015625 129.289062 C 233.875 128.582031 233.699219 127.882812 233.492188 127.195312 C 233.28125 126.503906 233.039062 125.828125 232.765625 125.164062 C 232.488281 124.496094 232.179688 123.847656 231.84375 123.210938 C 231.503906 122.578125 231.132812 121.960938 230.734375 121.359375 C 230.332031 120.761719 229.902344 120.183594 229.449219 119.628906 C 228.992188 119.070312 228.507812 118.539062 228 118.027344 C 227.488281 117.519531 226.957031 117.035156 226.398438 116.578125 C 225.84375 116.121094 225.265625 115.695312 224.667969 115.292969 C 224.066406 114.894531 223.449219 114.523438 222.816406 114.183594 C 222.179688 113.84375 221.53125 113.539062 220.863281 113.261719 C 220.199219 112.988281 219.523438 112.746094 218.832031 112.535156 C 218.144531 112.328125 217.445312 112.152344 216.738281 112.011719 C 216.03125 111.871094 215.320312 111.765625 214.605469 111.695312 C 213.886719 111.625 213.167969 111.589844 212.449219 111.589844 L 159.414062 111.589844 C 158.695312 111.589844 157.980469 111.625 157.265625 111.695312 C 156.554688 111.765625 155.84375 111.871094 155.140625 112.011719 C 154.4375 112.152344 153.742188 112.324219 153.054688 112.535156 C 152.371094 112.742188 151.695312 112.980469 151.03125 113.257812 C 150.371094 113.53125 149.722656 113.835938 149.089844 114.171875 C 148.457031 114.511719 147.839844 114.878906 147.242188 115.273438 C 146.648438 115.671875 146.070312 116.097656 145.515625 116.550781 C 144.960938 117.007812 144.429688 117.488281 143.917969 117.992188 C 143.410156 118.5 142.929688 119.027344 142.472656 119.582031 C 142.015625 120.132812 141.585938 120.707031 141.1875 121.304688 C 140.785156 121.898438 140.417969 122.511719 140.078125 123.144531 C 139.734375 123.773438 139.425781 124.421875 139.152344 125.082031 C 138.875 125.746094 138.628906 126.417969 138.417969 127.105469 C 138.207031 127.789062 138.03125 128.484375 137.886719 129.1875 C 137.746094 129.890625 137.636719 130.597656 137.5625 131.3125 C 137.488281 132.023438 137.449219 132.738281 137.445312 133.457031 L 137.445312 157.601562 L 135.507812 139.871094 L 133.179688 140.542969 C 130.726562 141.257812 129.015625 143.867188 129.015625 146.875 L 129.015625 164.308594 C 129.015625 167.304688 130.738281 169.914062 133.191406 170.640625 L 137.453125 171.910156 L 137.453125 175.746094 L 161.609375 175.746094 L 165.671875 166.195312 L 171.230469 178.914062 L 176.613281 158.273438 L 183.269531 179.597656 L 188.441406 155.957031 L 194.320312 178.539062 L 198.878906 164.207031 L 204.71875 178.640625 L 206.128906 175.695312 L 234.429688 175.695312 L 234.429688 171.859375 L 238.699219 170.589844 C 241.148438 169.855469 242.871094 167.183594 242.871094 164.113281 L 242.871094 146.242188 C 242.871094 143.160156 241.148438 140.484375 238.699219 139.757812 Z M 164.226562 154.324219 C 163.308594 154.324219 162.398438 154.234375 161.5 154.054688 C 160.601562 153.875 159.726562 153.609375 158.878906 153.257812 C 158.03125 152.90625 157.222656 152.476562 156.460938 151.96875 C 155.699219 151.457031 154.992188 150.878906 154.34375 150.230469 C 153.695312 149.578125 153.113281 148.875 152.605469 148.109375 C 152.09375 147.347656 151.664062 146.542969 151.3125 145.695312 C 150.960938 144.847656 150.699219 143.972656 150.519531 143.070312 C 150.339844 142.171875 150.25 141.261719 150.25 140.34375 C 150.25 139.425781 150.339844 138.519531 150.519531 137.617188 C 150.699219 136.71875 150.964844 135.84375 151.316406 134.996094 C 151.667969 134.148438 152.097656 133.34375 152.609375 132.578125 C 153.117188 131.816406 153.695312 131.109375 154.347656 130.460938 C 154.996094 129.8125 155.703125 129.234375 156.464844 128.722656 C 157.226562 128.214844 158.035156 127.785156 158.882812 127.433594 C 159.730469 127.082031 160.605469 126.816406 161.503906 126.636719 C 162.402344 126.460938 163.3125 126.371094 164.230469 126.371094 C 165.148438 126.371094 166.058594 126.460938 166.957031 126.640625 C 167.859375 126.820312 168.730469 127.085938 169.578125 127.4375 C 170.425781 127.789062 171.234375 128.21875 171.996094 128.730469 C 172.757812 129.238281 173.464844 129.820312 174.113281 130.46875 C 174.761719 131.117188 175.339844 131.824219 175.851562 132.585938 C 176.359375 133.351562 176.789062 134.15625 177.140625 135.003906 C 177.492188 135.851562 177.757812 136.726562 177.933594 137.625 C 178.113281 138.527344 178.203125 139.433594 178.203125 140.351562 C 178.203125 141.269531 178.113281 142.179688 177.933594 143.078125 C 177.753906 143.980469 177.488281 144.855469 177.140625 145.703125 C 176.789062 146.550781 176.355469 147.355469 175.847656 148.117188 C 175.335938 148.878906 174.757812 149.585938 174.109375 150.234375 C 173.460938 150.882812 172.753906 151.464844 171.992188 151.972656 C 171.226562 152.484375 170.421875 152.914062 169.574219 153.265625 C 168.726562 153.617188 167.851562 153.882812 166.953125 154.0625 C 166.054688 154.238281 165.144531 154.328125 164.226562 154.328125 Z M 207.378906 154.59375 C 206.441406 154.59375 205.515625 154.503906 204.597656 154.320312 C 203.679688 154.140625 202.789062 153.867188 201.925781 153.511719 C 201.058594 153.152344 200.238281 152.714844 199.460938 152.195312 C 198.683594 151.675781 197.964844 151.082031 197.300781 150.421875 C 196.640625 149.761719 196.050781 149.039062 195.53125 148.261719 C 195.011719 147.484375 194.570312 146.664062 194.214844 145.800781 C 193.855469 144.933594 193.585938 144.042969 193.402344 143.125 C 193.21875 142.207031 193.128906 141.28125 193.128906 140.347656 C 193.128906 139.410156 193.21875 138.484375 193.402344 137.566406 C 193.585938 136.648438 193.855469 135.757812 194.214844 134.894531 C 194.570312 134.03125 195.011719 133.207031 195.53125 132.429688 C 196.050781 131.652344 196.640625 130.933594 197.300781 130.273438 C 197.964844 129.609375 198.683594 129.019531 199.460938 128.5 C 200.238281 127.980469 201.058594 127.542969 201.925781 127.183594 C 202.789062 126.824219 203.679688 126.554688 204.597656 126.371094 C 205.515625 126.191406 206.441406 126.097656 207.378906 126.097656 C 208.3125 126.097656 209.238281 126.191406 210.15625 126.371094 C 211.074219 126.554688 211.964844 126.824219 212.828125 127.183594 C 213.695312 127.542969 214.515625 127.980469 215.292969 128.5 C 216.070312 129.019531 216.789062 129.609375 217.453125 130.273438 C 218.113281 130.933594 218.703125 131.652344 219.222656 132.429688 C 219.742188 133.207031 220.183594 134.03125 220.539062 134.894531 C 220.898438 135.757812 221.167969 136.648438 221.351562 137.566406 C 221.535156 138.484375 221.625 139.410156 221.625 140.347656 C 221.625 141.28125 221.535156 142.210938 221.351562 143.128906 C 221.171875 144.046875 220.902344 144.9375 220.542969 145.800781 C 220.183594 146.667969 219.746094 147.488281 219.226562 148.265625 C 218.707031 149.042969 218.117188 149.765625 217.453125 150.425781 C 216.792969 151.085938 216.074219 151.679688 215.296875 152.199219 C 214.515625 152.71875 213.695312 153.15625 212.832031 153.515625 C 211.964844 153.875 211.074219 154.144531 210.15625 154.328125 C 209.238281 154.511719 208.3125 154.601562 207.378906 154.601562 Z M 207.378906 154.59375 " fill-opacity="1" fill-rule="nonzero"/><path fill="#ff5757" d="M 164.226562 130.960938 C 163.609375 130.960938 163 131.023438 162.394531 131.140625 C 161.789062 131.261719 161.203125 131.441406 160.632812 131.675781 C 160.0625 131.914062 159.523438 132.203125 159.007812 132.542969 C 158.496094 132.886719 158.023438 133.277344 157.585938 133.710938 C 157.148438 134.148438 156.761719 134.621094 156.417969 135.136719 C 156.074219 135.648438 155.785156 136.191406 155.550781 136.757812 C 155.3125 137.328125 155.136719 137.917969 155.015625 138.519531 C 154.894531 139.125 154.835938 139.738281 154.835938 140.351562 C 154.835938 140.96875 154.894531 141.582031 155.015625 142.183594 C 155.136719 142.789062 155.3125 143.378906 155.550781 143.945312 C 155.785156 144.515625 156.074219 145.058594 156.417969 145.570312 C 156.761719 146.082031 157.148438 146.558594 157.585938 146.992188 C 158.023438 147.429688 158.496094 147.820312 159.007812 148.160156 C 159.523438 148.503906 160.0625 148.792969 160.632812 149.03125 C 161.203125 149.265625 161.789062 149.445312 162.394531 149.5625 C 163 149.683594 163.609375 149.746094 164.226562 149.746094 C 164.84375 149.746094 165.453125 149.683594 166.058594 149.5625 C 166.664062 149.445312 167.25 149.265625 167.820312 149.03125 C 168.390625 148.792969 168.929688 148.503906 169.445312 148.160156 C 169.957031 147.820312 170.429688 147.429688 170.867188 146.992188 C 171.304688 146.558594 171.691406 146.082031 172.035156 145.570312 C 172.378906 145.058594 172.667969 144.515625 172.902344 143.945312 C 173.140625 143.378906 173.316406 142.789062 173.4375 142.183594 C 173.558594 141.582031 173.617188 140.96875 173.617188 140.351562 C 173.617188 139.738281 173.558594 139.125 173.4375 138.519531 C 173.316406 137.917969 173.136719 137.328125 172.902344 136.761719 C 172.664062 136.191406 172.375 135.648438 172.035156 135.136719 C 171.691406 134.625 171.300781 134.148438 170.867188 133.714844 C 170.429688 133.277344 169.957031 132.890625 169.441406 132.546875 C 168.929688 132.203125 168.390625 131.914062 167.820312 131.679688 C 167.25 131.441406 166.664062 131.265625 166.058594 131.144531 C 165.453125 131.023438 164.84375 130.960938 164.226562 130.960938 Z M 165.054688 142.929688 C 164.753906 142.929688 164.453125 142.902344 164.15625 142.84375 C 163.863281 142.78125 163.574219 142.695312 163.292969 142.578125 C 163.015625 142.464844 162.75 142.324219 162.5 142.15625 C 162.246094 141.988281 162.015625 141.796875 161.800781 141.582031 C 161.585938 141.367188 161.394531 141.136719 161.226562 140.882812 C 161.058594 140.632812 160.917969 140.367188 160.804688 140.089844 C 160.6875 139.808594 160.601562 139.519531 160.539062 139.226562 C 160.480469 138.929688 160.453125 138.628906 160.453125 138.328125 C 160.453125 138.023438 160.480469 137.726562 160.539062 137.429688 C 160.601562 137.132812 160.6875 136.84375 160.804688 136.566406 C 160.917969 136.285156 161.058594 136.019531 161.226562 135.769531 C 161.394531 135.519531 161.585938 135.285156 161.800781 135.070312 C 162.015625 134.859375 162.246094 134.667969 162.5 134.5 C 162.75 134.332031 163.015625 134.1875 163.292969 134.074219 C 163.574219 133.957031 163.863281 133.871094 164.15625 133.8125 C 164.453125 133.753906 164.753906 133.722656 165.054688 133.722656 C 165.359375 133.722656 165.65625 133.753906 165.953125 133.8125 C 166.25 133.871094 166.539062 133.957031 166.816406 134.074219 C 167.097656 134.1875 167.363281 134.332031 167.613281 134.5 C 167.867188 134.667969 168.097656 134.859375 168.3125 135.070312 C 168.523438 135.285156 168.714844 135.519531 168.882812 135.769531 C 169.050781 136.019531 169.195312 136.285156 169.308594 136.566406 C 169.425781 136.84375 169.511719 137.132812 169.570312 137.429688 C 169.628906 137.726562 169.660156 138.023438 169.660156 138.328125 C 169.660156 138.628906 169.628906 138.929688 169.570312 139.226562 C 169.511719 139.519531 169.425781 139.808594 169.308594 140.089844 C 169.195312 140.367188 169.050781 140.632812 168.882812 140.882812 C 168.714844 141.136719 168.523438 141.367188 168.3125 141.582031 C 168.097656 141.796875 167.867188 141.988281 167.613281 142.15625 C 167.363281 142.324219 167.097656 142.464844 166.816406 142.578125 C 166.539062 142.695312 166.25 142.78125 165.953125 142.84375 C 165.65625 142.902344 165.359375 142.929688 165.054688 142.929688 Z M 165.054688 142.929688 " fill-opacity="1" fill-rule="nonzero"/><path fill="#ff5757" d="M 207.378906 130.777344 C 206.75 130.777344 206.125 130.839844 205.507812 130.960938 C 204.890625 131.085938 204.292969 131.265625 203.710938 131.507812 C 203.132812 131.746094 202.582031 132.042969 202.058594 132.390625 C 201.535156 132.742188 201.050781 133.136719 200.605469 133.582031 C 200.160156 134.027344 199.765625 134.511719 199.414062 135.035156 C 199.066406 135.554688 198.773438 136.109375 198.53125 136.6875 C 198.289062 137.269531 198.109375 137.867188 197.984375 138.484375 C 197.863281 139.101562 197.800781 139.722656 197.800781 140.351562 C 197.800781 140.980469 197.863281 141.605469 197.984375 142.222656 C 198.109375 142.835938 198.289062 143.4375 198.53125 144.015625 C 198.773438 144.597656 199.066406 145.148438 199.414062 145.671875 C 199.765625 146.195312 200.160156 146.679688 200.605469 147.125 C 201.050781 147.566406 201.535156 147.964844 202.058594 148.3125 C 202.582031 148.664062 203.132812 148.957031 203.710938 149.199219 C 204.292969 149.441406 204.890625 149.621094 205.507812 149.742188 C 206.125 149.867188 206.75 149.929688 207.378906 149.929688 C 208.003906 149.929688 208.628906 149.867188 209.246094 149.742188 C 209.863281 149.621094 210.460938 149.441406 211.042969 149.199219 C 211.621094 148.957031 212.171875 148.664062 212.695312 148.3125 C 213.21875 147.964844 213.703125 147.566406 214.148438 147.125 C 214.59375 146.679688 214.988281 146.195312 215.339844 145.671875 C 215.6875 145.148438 215.984375 144.597656 216.222656 144.015625 C 216.464844 143.4375 216.644531 142.835938 216.769531 142.222656 C 216.890625 141.605469 216.953125 140.980469 216.953125 140.351562 C 216.953125 139.722656 216.890625 139.101562 216.769531 138.484375 C 216.644531 137.867188 216.464844 137.269531 216.222656 136.6875 C 215.984375 136.109375 215.6875 135.554688 215.339844 135.035156 C 214.988281 134.511719 214.59375 134.027344 214.148438 133.582031 C 213.703125 133.136719 213.21875 132.742188 212.695312 132.390625 C 212.171875 132.042969 211.621094 131.746094 211.042969 131.507812 C 210.460938 131.265625 209.863281 131.085938 209.246094 130.960938 C 208.628906 130.839844 208.003906 130.777344 207.378906 130.777344 Z M 208.226562 142.980469 C 207.917969 142.980469 207.613281 142.949219 207.308594 142.890625 C 207.007812 142.828125 206.714844 142.738281 206.429688 142.621094 C 206.144531 142.503906 205.875 142.359375 205.621094 142.1875 C 205.363281 142.015625 205.128906 141.820312 204.910156 141.601562 C 204.691406 141.386719 204.5 141.148438 204.328125 140.890625 C 204.15625 140.636719 204.011719 140.363281 203.894531 140.078125 C 203.777344 139.796875 203.6875 139.5 203.628906 139.199219 C 203.570312 138.898438 203.539062 138.59375 203.539062 138.285156 C 203.539062 137.976562 203.570312 137.671875 203.628906 137.371094 C 203.691406 137.066406 203.78125 136.773438 203.898438 136.488281 C 204.015625 136.203125 204.160156 135.933594 204.332031 135.679688 C 204.503906 135.421875 204.699219 135.1875 204.917969 134.96875 C 205.132812 134.75 205.371094 134.554688 205.628906 134.386719 C 205.882812 134.214844 206.152344 134.070312 206.4375 133.953125 C 206.722656 133.835938 207.015625 133.746094 207.320312 133.6875 C 207.621094 133.625 207.925781 133.597656 208.234375 133.597656 C 208.542969 133.597656 208.847656 133.625 209.148438 133.6875 C 209.453125 133.746094 209.746094 133.835938 210.027344 133.953125 C 210.3125 134.070312 210.582031 134.214844 210.839844 134.386719 C 211.097656 134.558594 211.332031 134.753906 211.550781 134.972656 C 211.769531 135.1875 211.964844 135.425781 212.132812 135.683594 C 212.304688 135.9375 212.449219 136.207031 212.566406 136.492188 C 212.683594 136.777344 212.773438 137.070312 212.835938 137.375 C 212.894531 137.675781 212.925781 137.980469 212.925781 138.289062 C 212.925781 138.597656 212.894531 138.902344 212.835938 139.203125 C 212.773438 139.507812 212.683594 139.800781 212.566406 140.085938 C 212.449219 140.371094 212.304688 140.640625 212.132812 140.898438 C 211.960938 141.152344 211.765625 141.390625 211.546875 141.609375 C 211.328125 141.828125 211.09375 142.019531 210.835938 142.191406 C 210.578125 142.363281 210.308594 142.507812 210.023438 142.625 C 209.738281 142.742188 209.445312 142.832031 209.140625 142.890625 C 208.839844 142.953125 208.535156 142.980469 208.226562 142.980469 Z M 208.226562 142.980469 " fill-opacity="1" fill-rule="nonzero"/><path fill="#000000" d="M 107.796875 183.648438 L 107.796875 157.484375 C 106.238281 157.957031 104.648438 158.191406 103.019531 158.191406 C 101.390625 158.191406 99.796875 157.957031 98.242188 157.484375 L 98.242188 183.648438 C 98.242188 185.691406 98.363281 187.722656 98.605469 189.75 C 98.847656 191.777344 99.210938 193.78125 99.691406 195.765625 C 100.171875 197.75 100.769531 199.695312 101.480469 201.609375 C 102.195312 203.523438 103.019531 205.386719 103.953125 207.199219 C 104.886719 209.015625 105.929688 210.765625 107.070312 212.457031 C 108.214844 214.148438 109.453125 215.765625 110.789062 217.308594 C 112.125 218.851562 113.550781 220.308594 115.058594 221.683594 C 116.570312 223.054688 118.152344 224.335938 119.816406 225.519531 L 119.816406 222.101562 C 119.816406 219.449219 120.304688 216.890625 121.285156 214.425781 C 119.15625 212.46875 117.253906 210.3125 115.574219 207.957031 C 113.894531 205.601562 112.472656 203.101562 111.3125 200.453125 C 110.152344 197.804688 109.273438 195.0625 108.683594 192.234375 C 108.089844 189.402344 107.796875 186.542969 107.796875 183.648438 Z M 107.796875 183.648438 " fill-opacity="1" fill-rule="nonzero"/><g clip-path="url(#15e07c98f6)"><path fill="#00bf63" d="M 103.015625 158.191406 C 102.476562 158.191406 101.941406 158.164062 101.40625 158.109375 C 100.871094 158.054688 100.339844 157.976562 99.8125 157.871094 C 99.285156 157.765625 98.765625 157.632812 98.25 157.476562 C 97.738281 157.320312 97.230469 157.136719 96.734375 156.929688 C 96.238281 156.726562 95.753906 156.496094 95.28125 156.242188 C 94.804688 155.988281 94.34375 155.710938 93.898438 155.410156 C 93.453125 155.113281 93.019531 154.792969 92.605469 154.453125 C 92.1875 154.109375 91.792969 153.75 91.410156 153.371094 C 91.03125 152.988281 90.671875 152.589844 90.328125 152.175781 C 89.988281 151.761719 89.667969 151.328125 89.367188 150.882812 C 89.070312 150.4375 88.792969 149.976562 88.539062 149.5 C 88.285156 149.027344 88.054688 148.542969 87.847656 148.046875 C 87.644531 147.550781 87.460938 147.042969 87.304688 146.53125 C 87.148438 146.015625 87.015625 145.496094 86.910156 144.96875 C 86.804688 144.441406 86.726562 143.910156 86.671875 143.375 C 86.617188 142.839844 86.589844 142.304688 86.589844 141.765625 L 95.636719 141.765625 C 95.636719 142.25 95.683594 142.730469 95.78125 143.203125 C 95.875 143.679688 96.015625 144.140625 96.199219 144.589844 C 96.386719 145.035156 96.613281 145.460938 96.882812 145.863281 C 97.152344 146.265625 97.457031 146.640625 97.800781 146.980469 C 98.140625 147.324219 98.515625 147.628906 98.917969 147.898438 C 99.320312 148.167969 99.746094 148.394531 100.191406 148.582031 C 100.640625 148.765625 101.101562 148.90625 101.578125 149 C 102.050781 149.09375 102.53125 149.144531 103.015625 149.144531 C 103.5 149.144531 103.980469 149.09375 104.453125 149 C 104.929688 148.90625 105.390625 148.765625 105.839844 148.582031 C 106.285156 148.394531 106.710938 148.167969 107.113281 147.898438 C 107.515625 147.628906 107.890625 147.324219 108.230469 146.980469 C 108.574219 146.640625 108.878906 146.265625 109.148438 145.863281 C 109.417969 145.460938 109.644531 145.035156 109.832031 144.589844 C 110.015625 144.140625 110.15625 143.679688 110.25 143.203125 C 110.347656 142.730469 110.394531 142.25 110.394531 141.765625 L 119.449219 141.765625 C 119.449219 142.304688 119.421875 142.839844 119.367188 143.375 C 119.3125 143.910156 119.234375 144.441406 119.125 144.96875 C 119.019531 145.496094 118.890625 146.015625 118.734375 146.53125 C 118.574219 147.046875 118.394531 147.550781 118.1875 148.046875 C 117.980469 148.542969 117.75 149.027344 117.496094 149.503906 C 117.242188 149.976562 116.964844 150.4375 116.667969 150.882812 C 116.367188 151.332031 116.046875 151.761719 115.707031 152.179688 C 115.367188 152.59375 115.003906 152.992188 114.625 153.371094 C 114.242188 153.753906 113.847656 154.113281 113.429688 154.453125 C 113.015625 154.796875 112.582031 155.117188 112.136719 155.414062 C 111.6875 155.714844 111.226562 155.988281 110.753906 156.242188 C 110.28125 156.496094 109.792969 156.726562 109.296875 156.933594 C 108.800781 157.140625 108.296875 157.320312 107.78125 157.476562 C 107.265625 157.632812 106.746094 157.765625 106.21875 157.871094 C 105.691406 157.976562 105.160156 158.054688 104.625 158.109375 C 104.089844 158.164062 103.554688 158.191406 103.015625 158.191406 Z M 103.015625 158.191406 " fill-opacity="1" fill-rule="nonzero"/></g><path fill="#000000" d="M 271.976562 157.863281 C 270.347656 157.863281 268.757812 157.625 267.199219 157.148438 L 267.199219 183.320312 C 267.203125 186.488281 266.847656 189.613281 266.140625 192.699219 C 265.429688 195.789062 264.382812 198.753906 263 201.605469 C 261.621094 204.453125 259.933594 207.113281 257.949219 209.578125 C 255.960938 212.046875 253.726562 214.257812 251.238281 216.21875 C 251.804688 218.136719 252.085938 220.097656 252.085938 222.101562 L 252.085938 227.253906 C 253.960938 226.113281 255.757812 224.855469 257.472656 223.480469 C 259.191406 222.109375 260.8125 220.628906 262.335938 219.050781 C 263.863281 217.46875 265.285156 215.796875 266.59375 214.035156 C 267.90625 212.273438 269.101562 210.433594 270.179688 208.515625 C 271.257812 206.601562 272.207031 204.625 273.03125 202.585938 C 273.855469 200.550781 274.542969 198.46875 275.101562 196.34375 C 275.660156 194.21875 276.078125 192.066406 276.359375 189.886719 C 276.640625 187.707031 276.78125 185.515625 276.78125 183.320312 L 276.78125 157.148438 C 275.214844 157.625 273.613281 157.867188 271.976562 157.863281 Z M 271.976562 157.863281 " fill-opacity="1" fill-rule="nonzero"/><g clip-path="url(#b66c21bba4)"><path fill="#00bf63" d="M 271.976562 157.863281 C 271.4375 157.863281 270.902344 157.835938 270.367188 157.78125 C 269.832031 157.726562 269.300781 157.648438 268.773438 157.539062 C 268.246094 157.433594 267.726562 157.304688 267.210938 157.148438 C 266.695312 156.988281 266.191406 156.808594 265.695312 156.601562 C 265.199219 156.394531 264.710938 156.164062 264.238281 155.910156 C 263.765625 155.65625 263.304688 155.378906 262.855469 155.082031 C 262.410156 154.78125 261.976562 154.460938 261.5625 154.121094 C 261.148438 153.78125 260.75 153.417969 260.371094 153.039062 C 259.988281 152.65625 259.628906 152.261719 259.289062 151.84375 C 258.945312 151.429688 258.625 150.996094 258.328125 150.550781 C 258.027344 150.101562 257.75 149.640625 257.496094 149.167969 C 257.242188 148.695312 257.015625 148.207031 256.808594 147.710938 C 256.601562 147.214844 256.421875 146.710938 256.261719 146.195312 C 256.105469 145.679688 255.976562 145.160156 255.871094 144.632812 C 255.765625 144.105469 255.683594 143.574219 255.632812 143.039062 C 255.578125 142.503906 255.550781 141.96875 255.550781 141.429688 L 264.597656 141.429688 C 264.597656 141.914062 264.644531 142.394531 264.738281 142.867188 C 264.835938 143.34375 264.976562 143.804688 265.160156 144.253906 C 265.34375 144.699219 265.574219 145.125 265.839844 145.527344 C 266.109375 145.929688 266.417969 146.304688 266.757812 146.644531 C 267.101562 146.988281 267.472656 147.292969 267.878906 147.5625 C 268.28125 147.832031 268.707031 148.058594 269.152344 148.246094 C 269.601562 148.429688 270.0625 148.570312 270.535156 148.664062 C 271.011719 148.761719 271.492188 148.808594 271.976562 148.808594 C 272.460938 148.808594 272.941406 148.761719 273.414062 148.664062 C 273.890625 148.570312 274.351562 148.429688 274.800781 148.246094 C 275.246094 148.058594 275.671875 147.832031 276.074219 147.5625 C 276.476562 147.292969 276.851562 146.988281 277.191406 146.644531 C 277.535156 146.304688 277.839844 145.929688 278.109375 145.527344 C 278.378906 145.125 278.605469 144.699219 278.792969 144.253906 C 278.976562 143.804688 279.117188 143.34375 279.210938 142.867188 C 279.304688 142.394531 279.351562 141.914062 279.351562 141.429688 L 288.402344 141.429688 C 288.402344 141.96875 288.375 142.503906 288.320312 143.039062 C 288.265625 143.574219 288.1875 144.105469 288.082031 144.632812 C 287.976562 145.160156 287.84375 145.679688 287.6875 146.195312 C 287.53125 146.710938 287.351562 147.214844 287.144531 147.710938 C 286.9375 148.207031 286.707031 148.695312 286.453125 149.167969 C 286.199219 149.640625 285.921875 150.101562 285.625 150.550781 C 285.324219 150.996094 285.003906 151.429688 284.664062 151.84375 C 284.324219 152.261719 283.960938 152.65625 283.582031 153.039062 C 283.203125 153.417969 282.804688 153.78125 282.390625 154.121094 C 281.972656 154.460938 281.542969 154.78125 281.09375 155.082031 C 280.648438 155.378906 280.1875 155.65625 279.714844 155.910156 C 279.238281 156.164062 278.753906 156.394531 278.257812 156.601562 C 277.761719 156.808594 277.253906 156.988281 276.742188 157.148438 C 276.226562 157.304688 275.707031 157.433594 275.179688 157.539062 C 274.652344 157.648438 274.121094 157.726562 273.585938 157.78125 C 273.050781 157.835938 272.515625 157.863281 271.976562 157.863281 Z M 271.976562 157.863281 " fill-opacity="1" fill-rule="nonzero"/></g><g fill="#00bf63" fill-opacity="1"><g transform="translate(83.521339, 263.103424)"><g><path d="M 11.703125 0 L 5.953125 0 L 5.953125 -16.59375 L 0.75 -16.59375 L 0.75 -21.296875 L 16.890625 -21.296875 L 16.890625 -16.59375 L 11.703125 -16.59375 Z M 11.703125 0 "/></g></g></g><g fill="#00bf63" fill-opacity="1"><g transform="translate(100.409555, 263.103424)"><g><path d="M 12.734375 0 L 11.640625 -2.1875 L 11.53125 -2.1875 C 10.757812 -1.226562 9.972656 -0.570312 9.171875 -0.21875 C 8.378906 0.125 7.351562 0.296875 6.09375 0.296875 C 4.539062 0.296875 3.316406 -0.164062 2.421875 -1.09375 C 1.523438 -2.03125 1.078125 -3.347656 1.078125 -5.046875 C 1.078125 -6.796875 1.6875 -8.101562 2.90625 -8.96875 C 4.132812 -9.832031 5.910156 -10.316406 8.234375 -10.421875 L 10.984375 -10.5 L 10.984375 -10.734375 C 10.984375 -12.097656 10.3125 -12.78125 8.96875 -12.78125 C 7.769531 -12.78125 6.242188 -12.375 4.390625 -11.5625 L 2.734375 -15.3125 C 4.660156 -16.300781 7.09375 -16.796875 10.03125 -16.796875 C 12.144531 -16.796875 13.78125 -16.269531 14.9375 -15.21875 C 16.101562 -14.175781 16.6875 -12.710938 16.6875 -10.828125 L 16.6875 0 Z M 8.515625 -3.734375 C 9.203125 -3.734375 9.789062 -3.953125 10.28125 -4.390625 C 10.769531 -4.828125 11.015625 -5.394531 11.015625 -6.09375 L 11.015625 -7.375 L 9.703125 -7.3125 C 7.828125 -7.25 6.890625 -6.5625 6.890625 -5.25 C 6.890625 -4.238281 7.429688 -3.734375 8.515625 -3.734375 Z M 8.515625 -3.734375 "/></g></g></g><g fill="#00bf63" fill-opacity="1"><g transform="translate(118.259657, 263.103424)"><g><path d="M 14.71875 -5.078125 C 14.71875 -3.304688 14.113281 -1.96875 12.90625 -1.0625 C 11.707031 -0.15625 9.976562 0.296875 7.71875 0.296875 C 6.5 0.296875 5.4375 0.226562 4.53125 0.09375 C 3.625 -0.0390625 2.703125 -0.28125 1.765625 -0.625 L 1.765625 -5.1875 C 2.648438 -4.800781 3.617188 -4.476562 4.671875 -4.21875 C 5.722656 -3.96875 6.660156 -3.84375 7.484375 -3.84375 C 8.722656 -3.84375 9.34375 -4.125 9.34375 -4.6875 C 9.34375 -4.976562 9.171875 -5.238281 8.828125 -5.46875 C 8.484375 -5.695312 7.476562 -6.144531 5.8125 -6.8125 C 4.300781 -7.425781 3.242188 -8.128906 2.640625 -8.921875 C 2.035156 -9.710938 1.734375 -10.71875 1.734375 -11.9375 C 1.734375 -13.46875 2.328125 -14.660156 3.515625 -15.515625 C 4.703125 -16.367188 6.378906 -16.796875 8.546875 -16.796875 C 9.628906 -16.796875 10.648438 -16.675781 11.609375 -16.4375 C 12.566406 -16.207031 13.5625 -15.863281 14.59375 -15.40625 L 13.046875 -11.734375 C 12.285156 -12.066406 11.484375 -12.351562 10.640625 -12.59375 C 9.796875 -12.832031 9.101562 -12.953125 8.5625 -12.953125 C 7.632812 -12.953125 7.171875 -12.722656 7.171875 -12.265625 C 7.171875 -11.984375 7.332031 -11.742188 7.65625 -11.546875 C 7.976562 -11.347656 8.921875 -10.941406 10.484375 -10.328125 C 11.640625 -9.859375 12.5 -9.394531 13.0625 -8.9375 C 13.632812 -8.476562 14.050781 -7.9375 14.3125 -7.3125 C 14.582031 -6.695312 14.71875 -5.953125 14.71875 -5.078125 Z M 14.71875 -5.078125 "/></g></g></g><g fill="#00bf63" fill-opacity="1"><g transform="translate(133.428133, 263.103424)"><g><path d="M 7.484375 -9.28125 C 8.179688 -10.375 8.769531 -11.226562 9.25 -11.84375 L 12.953125 -16.515625 L 19.3125 -16.515625 L 13.578125 -9.484375 L 19.671875 0 L 13.15625 0 L 9.546875 -5.921875 L 7.6875 -4.5 L 7.6875 0 L 1.96875 0 L 1.96875 -22.671875 L 7.6875 -22.671875 L 7.6875 -13.75 C 7.6875 -12.226562 7.582031 -10.738281 7.375 -9.28125 Z M 7.484375 -9.28125 "/></g></g></g><g fill="#00bf63" fill-opacity="1"><g transform="translate(152.356717, 263.103424)"><g/></g></g><g fill="#00bf63" fill-opacity="1"><g transform="translate(159.363728, 263.103424)"><g><path d="M 11.578125 0 L 7.234375 -15.34375 L 7.09375 -15.34375 C 7.300781 -12.726562 7.40625 -10.695312 7.40625 -9.25 L 7.40625 0 L 2.296875 0 L 2.296875 -21.296875 L 9.96875 -21.296875 L 14.40625 -6.171875 L 14.53125 -6.171875 L 18.890625 -21.296875 L 26.5625 -21.296875 L 26.5625 0 L 21.28125 0 L 21.28125 -9.34375 C 21.28125 -9.820312 21.285156 -10.359375 21.296875 -10.953125 C 21.304688 -11.546875 21.375 -13 21.5 -15.3125 L 21.359375 -15.3125 L 17.0625 0 Z M 11.578125 0 "/></g></g></g><g fill="#00bf63" fill-opacity="1"><g transform="translate(187.473969, 263.103424)"><g><path d="M 12.734375 0 L 11.640625 -2.1875 L 11.53125 -2.1875 C 10.757812 -1.226562 9.972656 -0.570312 9.171875 -0.21875 C 8.378906 0.125 7.351562 0.296875 6.09375 0.296875 C 4.539062 0.296875 3.316406 -0.164062 2.421875 -1.09375 C 1.523438 -2.03125 1.078125 -3.347656 1.078125 -5.046875 C 1.078125 -6.796875 1.6875 -8.101562 2.90625 -8.96875 C 4.132812 -9.832031 5.910156 -10.316406 8.234375 -10.421875 L 10.984375 -10.5 L 10.984375 -10.734375 C 10.984375 -12.097656 10.3125 -12.78125 8.96875 -12.78125 C 7.769531 -12.78125 6.242188 -12.375 4.390625 -11.5625 L 2.734375 -15.3125 C 4.660156 -16.300781 7.09375 -16.796875 10.03125 -16.796875 C 12.144531 -16.796875 13.78125 -16.269531 14.9375 -15.21875 C 16.101562 -14.175781 16.6875 -12.710938 16.6875 -10.828125 L 16.6875 0 Z M 8.515625 -3.734375 C 9.203125 -3.734375 9.789062 -3.953125 10.28125 -4.390625 C 10.769531 -4.828125 11.015625 -5.394531 11.015625 -6.09375 L 11.015625 -7.375 L 9.703125 -7.3125 C 7.828125 -7.25 6.890625 -6.5625 6.890625 -5.25 C 6.890625 -4.238281 7.429688 -3.734375 8.515625 -3.734375 Z M 8.515625 -3.734375 "/></g></g></g><g fill="#00bf63" fill-opacity="1"><g transform="translate(205.324073, 263.103424)"><g><path d="M 12.390625 0 L 12.390625 -9 C 12.390625 -10.101562 12.226562 -10.929688 11.90625 -11.484375 C 11.59375 -12.046875 11.085938 -12.328125 10.390625 -12.328125 C 9.429688 -12.328125 8.738281 -11.941406 8.3125 -11.171875 C 7.882812 -10.410156 7.671875 -9.097656 7.671875 -7.234375 L 7.671875 0 L 1.96875 0 L 1.96875 -16.515625 L 6.265625 -16.515625 L 6.984375 -14.46875 L 7.3125 -14.46875 C 7.800781 -15.25 8.472656 -15.832031 9.328125 -16.21875 C 10.191406 -16.601562 11.179688 -16.796875 12.296875 -16.796875 C 14.117188 -16.796875 15.535156 -16.265625 16.546875 -15.203125 C 17.566406 -14.148438 18.078125 -12.660156 18.078125 -10.734375 L 18.078125 0 Z M 12.390625 0 "/></g></g></g><g fill="#00bf63" fill-opacity="1"><g transform="translate(224.573286, 263.103424)"><g><path d="M 12.734375 0 L 11.640625 -2.1875 L 11.53125 -2.1875 C 10.757812 -1.226562 9.972656 -0.570312 9.171875 -0.21875 C 8.378906 0.125 7.351562 0.296875 6.09375 0.296875 C 4.539062 0.296875 3.316406 -0.164062 2.421875 -1.09375 C 1.523438 -2.03125 1.078125 -3.347656 1.078125 -5.046875 C 1.078125 -6.796875 1.6875 -8.101562 2.90625 -8.96875 C 4.132812 -9.832031 5.910156 -10.316406 8.234375 -10.421875 L 10.984375 -10.5 L 10.984375 -10.734375 C 10.984375 -12.097656 10.3125 -12.78125 8.96875 -12.78125 C 7.769531 -12.78125 6.242188 -12.375 4.390625 -11.5625 L 2.734375 -15.3125 C 4.660156 -16.300781 7.09375 -16.796875 10.03125 -16.796875 C 12.144531 -16.796875 13.78125 -16.269531 14.9375 -15.21875 C 16.101562 -14.175781 16.6875 -12.710938 16.6875 -10.828125 L 16.6875 0 Z M 8.515625 -3.734375 C 9.203125 -3.734375 9.789062 -3.953125 10.28125 -4.390625 C 10.769531 -4.828125 11.015625 -5.394531 11.015625 -6.09375 L 11.015625 -7.375 L 9.703125 -7.3125 C 7.828125 -7.25 6.890625 -6.5625 6.890625 -5.25 C 6.890625 -4.238281 7.429688 -3.734375 8.515625 -3.734375 Z M 8.515625 -3.734375 "/></g></g></g><g fill="#00bf63" fill-opacity="1"><g transform="translate(242.423389, 263.103424)"><g><path d="M 17.546875 -16.515625 L 17.546875 -13.75 L 15.28125 -12.921875 C 15.59375 -12.359375 15.75 -11.703125 15.75 -10.953125 C 15.75 -9.179688 15.125 -7.800781 13.875 -6.8125 C 12.625 -5.832031 10.765625 -5.34375 8.296875 -5.34375 C 7.679688 -5.34375 7.191406 -5.382812 6.828125 -5.46875 C 6.691406 -5.207031 6.625 -4.96875 6.625 -4.75 C 6.625 -4.46875 6.851562 -4.25 7.3125 -4.09375 C 7.769531 -3.945312 8.367188 -3.875 9.109375 -3.875 L 11.84375 -3.875 C 15.550781 -3.875 17.40625 -2.316406 17.40625 0.796875 C 17.40625 2.804688 16.546875 4.367188 14.828125 5.484375 C 13.109375 6.609375 10.703125 7.171875 7.609375 7.171875 C 5.265625 7.171875 3.457031 6.78125 2.1875 6 C 0.925781 5.21875 0.296875 4.09375 0.296875 2.625 C 0.296875 0.65625 1.519531 -0.613281 3.96875 -1.1875 C 3.457031 -1.40625 3.015625 -1.75 2.640625 -2.21875 C 2.265625 -2.695312 2.078125 -3.171875 2.078125 -3.640625 C 2.078125 -4.160156 2.21875 -4.613281 2.5 -5 C 2.78125 -5.394531 3.367188 -5.863281 4.265625 -6.40625 C 3.410156 -6.789062 2.738281 -7.382812 2.25 -8.1875 C 1.757812 -9 1.515625 -9.984375 1.515625 -11.140625 C 1.515625 -12.929688 2.125 -14.320312 3.34375 -15.3125 C 4.570312 -16.300781 6.320312 -16.796875 8.59375 -16.796875 C 8.894531 -16.796875 9.414062 -16.757812 10.15625 -16.6875 C 10.894531 -16.625 11.4375 -16.566406 11.78125 -16.515625 Z M 5.09375 2.046875 C 5.09375 2.515625 5.34375 2.890625 5.84375 3.171875 C 6.351562 3.460938 7.035156 3.609375 7.890625 3.609375 C 9.265625 3.609375 10.363281 3.4375 11.1875 3.09375 C 12.019531 2.75 12.4375 2.304688 12.4375 1.765625 C 12.4375 1.328125 12.179688 1.015625 11.671875 0.828125 C 11.171875 0.648438 10.453125 0.5625 9.515625 0.5625 L 7.28125 0.5625 C 6.675781 0.5625 6.160156 0.703125 5.734375 0.984375 C 5.304688 1.273438 5.09375 1.628906 5.09375 2.046875 Z M 6.890625 -11.109375 C 6.890625 -9.410156 7.476562 -8.5625 8.65625 -8.5625 C 9.195312 -8.5625 9.613281 -8.769531 9.90625 -9.1875 C 10.207031 -9.613281 10.359375 -10.242188 10.359375 -11.078125 C 10.359375 -12.785156 9.789062 -13.640625 8.65625 -13.640625 C 7.476562 -13.640625 6.890625 -12.796875 6.890625 -11.109375 Z M 6.890625 -11.109375 "/></g></g></g><g fill="#00bf63" fill-opacity="1"><g transform="translate(259.763408, 263.103424)"><g><path d="M 9.9375 0.296875 C 7.1875 0.296875 5.050781 -0.429688 3.53125 -1.890625 C 2.007812 -3.359375 1.25 -5.441406 1.25 -8.140625 C 1.25 -10.929688 1.953125 -13.070312 3.359375 -14.5625 C 4.773438 -16.050781 6.789062 -16.796875 9.40625 -16.796875 C 11.882812 -16.796875 13.800781 -16.144531 15.15625 -14.84375 C 16.507812 -13.550781 17.1875 -11.6875 17.1875 -9.25 L 17.1875 -6.71875 L 7.015625 -6.71875 C 7.046875 -5.789062 7.378906 -5.066406 8.015625 -4.546875 C 8.648438 -4.023438 9.519531 -3.765625 10.625 -3.765625 C 11.625 -3.765625 12.539062 -3.859375 13.375 -4.046875 C 14.21875 -4.234375 15.128906 -4.554688 16.109375 -5.015625 L 16.109375 -0.921875 C 15.222656 -0.460938 14.300781 -0.144531 13.34375 0.03125 C 12.394531 0.207031 11.257812 0.296875 9.9375 0.296875 Z M 9.609375 -12.921875 C 8.929688 -12.921875 8.367188 -12.707031 7.921875 -12.28125 C 7.472656 -11.863281 7.207031 -11.203125 7.125 -10.296875 L 12.015625 -10.296875 C 12.003906 -11.097656 11.78125 -11.734375 11.34375 -12.203125 C 10.914062 -12.679688 10.335938 -12.921875 9.609375 -12.921875 Z M 9.609375 -12.921875 "/></g></g></g><g fill="#00bf63" fill-opacity="1"><g transform="translate(277.46776, 263.103424)"><g><path d="M 11.9375 -16.796875 C 12.425781 -16.796875 12.894531 -16.757812 13.34375 -16.6875 L 13.671875 -16.625 L 13.15625 -11.25 C 12.6875 -11.363281 12.039062 -11.421875 11.21875 -11.421875 C 9.976562 -11.421875 9.078125 -11.132812 8.515625 -10.5625 C 7.953125 -10 7.671875 -9.179688 7.671875 -8.109375 L 7.671875 0 L 1.96875 0 L 1.96875 -16.515625 L 6.203125 -16.515625 L 7.09375 -13.875 L 7.375 -13.875 C 7.851562 -14.75 8.515625 -15.453125 9.359375 -15.984375 C 10.210938 -16.523438 11.070312 -16.796875 11.9375 -16.796875 Z M 11.9375 -16.796875 "/></g></g></g><g fill="#000000" fill-opacity="1"><g transform="translate(85.927338, 282.488127)"><g><path d="M 9.421875 0 L 7.359375 0 L 6.1875 -4.5 C 6.144531 -4.65625 6.070312 -4.984375 5.96875 -5.484375 C 5.863281 -5.992188 5.804688 -6.332031 5.796875 -6.5 C 5.773438 -6.289062 5.71875 -5.953125 5.625 -5.484375 C 5.53125 -5.015625 5.457031 -4.679688 5.40625 -4.484375 L 4.25 0 L 2.1875 0 L 0 -8.5625 L 1.78125 -8.5625 L 2.890625 -3.890625 C 3.078125 -3.023438 3.210938 -2.273438 3.296875 -1.640625 C 3.316406 -1.867188 3.367188 -2.210938 3.453125 -2.671875 C 3.546875 -3.140625 3.628906 -3.503906 3.703125 -3.765625 L 4.953125 -8.5625 L 6.65625 -8.5625 L 7.90625 -3.765625 C 7.96875 -3.554688 8.035156 -3.226562 8.109375 -2.78125 C 8.191406 -2.34375 8.253906 -1.960938 8.296875 -1.640625 C 8.335938 -1.953125 8.398438 -2.332031 8.484375 -2.78125 C 8.578125 -3.238281 8.65625 -3.609375 8.71875 -3.890625 L 9.8125 -8.5625 L 11.609375 -8.5625 Z M 9.421875 0 "/></g></g></g><g fill="#000000" fill-opacity="1"><g transform="translate(106.492954, 282.488127)"><g><path d="M 1.078125 0 L 1.078125 -8.5625 L 2.890625 -8.5625 L 2.890625 0 Z M 1.078125 0 "/></g></g></g><g fill="#000000" fill-opacity="1"><g transform="translate(119.429665, 282.488127)"><g><path d="M 4.390625 0 L 2.5625 0 L 2.5625 -7.0625 L 0.234375 -7.0625 L 0.234375 -8.5625 L 6.703125 -8.5625 L 6.703125 -7.0625 L 4.390625 -7.0625 Z M 4.390625 0 "/></g></g></g><g fill="#000000" fill-opacity="1"><g transform="translate(135.34294, 282.488127)"><g><path d="M 8.09375 0 L 6.28125 0 L 6.28125 -3.703125 L 2.890625 -3.703125 L 2.890625 0 L 1.078125 0 L 1.078125 -8.5625 L 2.890625 -8.5625 L 2.890625 -5.203125 L 6.28125 -5.203125 L 6.28125 -8.5625 L 8.09375 -8.5625 Z M 8.09375 0 "/></g></g></g><g fill="#000000" fill-opacity="1"><g transform="translate(153.488634, 282.488127)"><g/></g></g><g fill="#000000" fill-opacity="1"><g transform="translate(165.569875, 282.488127)"><g><path d="M 4.703125 0 L 2.640625 -6.71875 L 2.59375 -6.71875 C 2.664062 -5.351562 2.703125 -4.441406 2.703125 -3.984375 L 2.703125 0 L 1.078125 0 L 1.078125 -8.5625 L 3.546875 -8.5625 L 5.578125 -2.015625 L 5.609375 -2.015625 L 7.765625 -8.5625 L 10.234375 -8.5625 L 10.234375 0 L 8.546875 0 L 8.546875 -4.0625 C 8.546875 -4.25 8.546875 -4.46875 8.546875 -4.71875 C 8.554688 -4.96875 8.582031 -5.628906 8.625 -6.703125 L 8.578125 -6.703125 L 6.375 0 Z M 4.703125 0 "/></g></g></g><g fill="#000000" fill-opacity="1"><g transform="translate(185.848386, 282.488127)"><g><path d="M 8.1875 -4.359375 C 8.1875 -2.953125 7.785156 -1.875 6.984375 -1.125 C 6.179688 -0.375 5.019531 0 3.5 0 L 1.078125 0 L 1.078125 -8.5625 L 3.765625 -8.5625 C 5.160156 -8.5625 6.242188 -8.191406 7.015625 -7.453125 C 7.796875 -6.722656 8.1875 -5.691406 8.1875 -4.359375 Z M 6.296875 -4.3125 C 6.296875 -6.15625 5.484375 -7.078125 3.859375 -7.078125 L 2.890625 -7.078125 L 2.890625 -1.5 L 3.671875 -1.5 C 5.421875 -1.5 6.296875 -2.4375 6.296875 -4.3125 Z M 6.296875 -4.3125 "/></g></g></g><g fill="#000000" fill-opacity="1"><g transform="translate(203.695251, 282.488127)"><g/></g></g><g fill="#000000" fill-opacity="1"><g transform="translate(215.776492, 282.488127)"><g><path d="M 2.890625 -4.765625 L 3.484375 -4.765625 C 4.054688 -4.765625 4.476562 -4.859375 4.75 -5.046875 C 5.019531 -5.242188 5.15625 -5.546875 5.15625 -5.953125 C 5.15625 -6.359375 5.015625 -6.644531 4.734375 -6.8125 C 4.460938 -6.988281 4.035156 -7.078125 3.453125 -7.078125 L 2.890625 -7.078125 Z M 2.890625 -3.28125 L 2.890625 0 L 1.078125 0 L 1.078125 -8.5625 L 3.578125 -8.5625 C 4.742188 -8.5625 5.601562 -8.347656 6.15625 -7.921875 C 6.71875 -7.503906 7 -6.863281 7 -6 C 7 -5.5 6.859375 -5.050781 6.578125 -4.65625 C 6.304688 -4.257812 5.914062 -3.953125 5.40625 -3.734375 C 6.695312 -1.804688 7.535156 -0.5625 7.921875 0 L 5.90625 0 L 3.859375 -3.28125 Z M 2.890625 -3.28125 "/></g></g></g><g fill="#000000" fill-opacity="1"><g transform="translate(232.66242, 282.488127)"><g><path d="M 6.328125 0 L 5.703125 -2.046875 L 2.578125 -2.046875 L 1.953125 0 L 0 0 L 3.03125 -8.609375 L 5.25 -8.609375 L 8.28125 0 Z M 5.265625 -3.5625 C 4.691406 -5.40625 4.367188 -6.445312 4.296875 -6.6875 C 4.222656 -6.9375 4.171875 -7.128906 4.140625 -7.265625 C 4.015625 -6.765625 3.644531 -5.53125 3.03125 -3.5625 Z M 5.265625 -3.5625 "/></g></g></g><g fill="#000000" fill-opacity="1"><g transform="translate(249.90577, 282.488127)"><g><path d="M 8.09375 0 L 6.28125 0 L 6.28125 -3.703125 L 2.890625 -3.703125 L 2.890625 0 L 1.078125 0 L 1.078125 -8.5625 L 2.890625 -8.5625 L 2.890625 -5.203125 L 6.28125 -5.203125 L 6.28125 -8.5625 L 8.09375 -8.5625 Z M 8.09375 0 "/></g></g></g><g fill="#000000" fill-opacity="1"><g transform="translate(268.051464, 282.488127)"><g><path d="M 1.078125 0 L 1.078125 -8.5625 L 2.890625 -8.5625 L 2.890625 0 Z M 1.078125 0 "/></g></g></g><g fill="#000000" fill-opacity="1"><g transform="translate(280.988185, 282.488127)"><g><path d="M 1.078125 -8.5625 L 3.75 -8.5625 C 4.957031 -8.5625 5.835938 -8.390625 6.390625 -8.046875 C 6.941406 -7.703125 7.21875 -7.15625 7.21875 -6.40625 C 7.21875 -5.882812 7.097656 -5.457031 6.859375 -5.125 C 6.617188 -4.800781 6.296875 -4.609375 5.890625 -4.546875 L 5.890625 -4.484375 C 6.429688 -4.367188 6.820312 -4.144531 7.0625 -3.8125 C 7.3125 -3.476562 7.4375 -3.035156 7.4375 -2.484375 C 7.4375 -1.703125 7.148438 -1.09375 6.578125 -0.65625 C 6.015625 -0.21875 5.25 0 4.28125 0 L 1.078125 0 Z M 2.890625 -5.171875 L 3.953125 -5.171875 C 4.441406 -5.171875 4.796875 -5.242188 5.015625 -5.390625 C 5.234375 -5.546875 5.34375 -5.800781 5.34375 -6.15625 C 5.34375 -6.488281 5.222656 -6.722656 4.984375 -6.859375 C 4.742188 -7.003906 4.363281 -7.078125 3.84375 -7.078125 L 2.890625 -7.078125 Z M 2.890625 -3.734375 L 2.890625 -1.5 L 4.078125 -1.5 C 4.578125 -1.5 4.945312 -1.59375 5.1875 -1.78125 C 5.425781 -1.976562 5.546875 -2.273438 5.546875 -2.671875 C 5.546875 -3.378906 5.035156 -3.734375 4.015625 -3.734375 Z M 2.890625 -3.734375 "/></g></g></g></svg>